<svg width="70" height="58" viewBox="0 0 70 58" fill="none" xmlns="http://www.w3.org/2000/svg">
<path d="M64.4272 23.8256C63.4544 18.3384 60.1408 13.1704 53.7264 9.21839C44.8648 3.77679 29.4824 2.98639 21.6544 10.8904C16.2736 16.3168 11.1968 29.024 11.972 36.8064C12.8992 46.0936 24.0408 56.308 32.9936 56.84C50.6256 57.9192 67.2088 39.588 64.4272 23.8256Z" fill="#A3B0C3"/>
<path d="M14.48 39.7248C14.4192 39.7552 14.3432 39.7704 14.2824 39.7856C14.252 39.7856 14.2216 39.7856 14.1912 39.7856C13.112 39.7856 9.616 37.8248 8.8256 36.8368C7.6704 36.776 6.7128 37.1256 5.9984 37.916C4.6152 39.4208 4.3112 42.172 4.4632 44.0568C4.7216 47.0664 2.1072 51.748 1.3928 52.9336C1.9552 53.0704 2.5632 53.1312 3.1712 53.1312C8.628 53.1312 14.0848 48.2064 15.1488 43.9656C15.4832 42.7344 15.5136 41.1384 14.48 39.7248Z" fill="#443D4A"/>
<path d="M15.6352 44.1024C16.076 42.324 15.8024 40.7432 14.86 39.4664C15.6808 38.7672 16.7144 37.08 17.3376 35.9856C17.3528 35.9856 17.368 35.9856 17.3832 35.9856C17.5504 35.9856 17.6872 35.9552 17.7936 35.9096C20.0584 34.952 32.0816 12.0608 32.188 3.91358C32.2032 2.22638 31.7472 1.16238 30.82 0.736782C30.5616 0.615182 30.288 0.554382 29.984 0.554382C26.5792 0.554382 21.2592 8.65598 17.3832 15.4504C13.2336 22.7312 9.616 30.5592 9.6008 31.3192C9.6008 31.608 9.768 31.9272 10.148 32.3224C10.1632 32.3376 10.1784 32.3528 10.1936 32.368C9.4944 33.7816 8.6888 35.56 8.6584 36.3504C7.4424 36.3352 6.424 36.7456 5.6336 37.5968C4.144 39.208 3.8096 42.1112 3.9768 44.1024C4.2504 47.3552 0.845603 52.9184 0.815203 52.964C0.769603 53.0248 0.769603 53.1008 0.800003 53.1768C0.830403 53.2528 0.891203 53.2984 0.952003 53.3136C1.6512 53.5112 2.396 53.6176 3.1712 53.6176C8.3544 53.6176 14.404 48.9968 15.6352 44.1024ZM3.1864 53.1464C2.5784 53.1464 1.9704 53.0856 1.408 52.9488C2.1072 51.748 4.7216 47.0816 4.4784 44.072C4.3264 42.172 4.6304 39.436 6.0136 37.9312C6.728 37.1408 7.6856 36.7912 8.8408 36.852C9.616 37.8248 13.112 39.8008 14.2064 39.8008C14.2368 39.8008 14.2672 39.8008 14.2976 39.8008C14.3584 39.8008 14.4192 39.7704 14.4952 39.74C15.544 41.1536 15.4984 42.7496 15.1944 43.996C14.1 48.2216 8.6432 53.1464 3.1864 53.1464ZM10.5736 32.7176C12.1088 34.0096 15.1792 35.5752 16.8208 35.9096C15.8024 37.6728 14.6776 39.2536 14.2216 39.2992H14.1912C13.1576 39.2992 9.3576 37.0344 9.1448 36.4416C9.0384 36.1376 9.7072 34.496 10.5736 32.7176ZM17.8392 15.648C23.22 6.22398 27.5368 1.02558 29.9992 1.02558C30.2272 1.02558 30.44 1.07118 30.6376 1.16238C31.3672 1.49678 31.732 2.40878 31.7168 3.89838C31.6104 12.5168 19.4048 34.7088 17.6112 35.4688C17.5808 35.484 17.5048 35.4992 17.3832 35.4992C15.9848 35.4992 11.8656 33.4016 10.4976 31.988C10.1176 31.5928 10.0872 31.3952 10.0872 31.3344C10.1176 30.772 13.3704 23.476 17.8392 15.648Z" fill="#0B1623"/>
<path d="M14.1912 39.2992H14.2216C14.6624 39.2536 15.8024 37.6728 16.8208 35.9096C15.1792 35.5752 12.1088 34.0096 10.5736 32.7176C9.70721 34.496 9.02321 36.1376 9.14481 36.4568C9.37281 37.0344 13.1728 39.2992 14.1912 39.2992Z" fill="#FCB827"/>
<path d="M62.3752 12.7752C58.1192 7.51601 52.2216 4.49121 46.1872 4.49121C44.272 4.49121 42.3568 4.79521 40.5024 5.38801C31.5192 8.26081 33.0392 13.7632 34.6504 19.5696C35.5928 22.9592 36.5656 26.4552 35.152 29.2824C33.9056 31.7904 32.0208 33.5536 30.212 35.2712C26.716 38.5696 23.7064 41.412 26.6096 48.4192C28.5704 53.1464 36.216 56.5664 44.7736 56.5816C54.1976 56.5816 65.2024 52.1584 67.8776 39.7096C70.036 29.5864 68.0296 19.7672 62.3752 12.7752ZM54.5928 19.0832C55.368 18.0952 56.4928 17.4568 57.7392 17.3048C57.9216 17.2744 58.1192 17.2744 58.3168 17.2744C60.7032 17.2744 62.7096 19.0528 62.9984 21.424C63.3176 24.008 61.4632 26.364 58.8792 26.668C58.6968 26.6984 58.4992 26.6984 58.3016 26.6984C55.9152 26.6984 53.9088 24.92 53.62 22.5488C53.468 21.3024 53.8176 20.0712 54.5928 19.0832ZM37.6904 51.5808C37.508 51.6112 37.3104 51.6112 37.1128 51.6112C34.7264 51.6112 32.72 49.8328 32.4312 47.4616C32.2792 46.2152 32.6288 44.9688 33.404 43.9808C34.1792 42.9928 35.304 42.3544 36.5504 42.2024C36.7328 42.172 36.9304 42.172 37.128 42.172C39.5144 42.172 41.5208 43.9504 41.8096 46.3216C42.1136 48.9056 40.2744 51.2616 37.6904 51.5808ZM44.3024 23.7192C41.1712 23.7192 38.4656 20.892 38.0096 17.1376C37.5232 13.1248 39.8336 9.53761 43.1472 9.14241C43.3448 9.11201 43.5576 9.11201 43.7552 9.11201C46.8864 9.11201 49.592 11.9392 50.048 15.6936C50.5344 19.7064 48.224 23.2936 44.9104 23.6888C44.7128 23.704 44.5 23.7192 44.3024 23.7192ZM52.328 50.6232C52.1456 50.6536 51.948 50.6536 51.7504 50.6536C49.364 50.6536 47.3576 48.8752 47.0688 46.504C46.9168 45.2576 47.2664 44.0112 48.0416 43.0232C48.8168 42.0352 49.9416 41.3968 51.188 41.2448C51.3704 41.2144 51.568 41.2144 51.7656 41.2144C54.152 41.2144 56.1584 42.9928 56.4472 45.364C56.7664 47.9632 54.912 50.3192 52.328 50.6232ZM62.3296 39.9984C62.1472 40.0288 61.9496 40.0288 61.752 40.0288C59.3656 40.0288 57.3592 38.2504 57.0704 35.8792C56.7512 33.2952 58.6056 30.9392 61.1896 30.6352C61.372 30.6048 61.5696 30.6048 61.7672 30.6048C64.1536 30.6048 66.16 32.3832 66.4488 34.7544C66.7528 37.3232 64.9136 39.6792 62.3296 39.9984Z" fill="#FFCF78"/>
<path d="M46.1872 4.00476C44.2264 4.00476 42.2504 4.30876 40.3504 4.93196C30.9264 7.95676 32.5832 13.9304 34.1792 19.7064C35.1368 23.1568 36.0336 26.4248 34.7112 29.0696C33.4952 31.5016 31.656 33.2344 29.8624 34.9216C26.3968 38.2048 23.1136 41.2904 26.1536 48.6016C28.1904 53.496 36.0184 57.0528 44.7584 57.0528C54.3648 57.0528 65.5976 52.5232 68.3336 39.8008C70.5376 29.5408 68.5008 19.5696 62.74 12.456C58.3928 7.09036 52.3584 4.00476 46.1872 4.00476ZM44.7584 56.5816C36.1856 56.5816 28.5552 53.1464 26.5944 48.4192C23.6912 41.412 26.7008 38.5696 30.1968 35.2712C32.0056 33.5536 33.8904 31.7904 35.1368 29.2824C36.5504 26.4552 35.5776 22.9592 34.6352 19.5696C33.024 13.7632 31.504 8.26076 40.4872 5.38796C42.3416 4.79516 44.2568 4.49116 46.172 4.49116C52.2064 4.49116 58.104 7.51596 62.36 12.7752C68.0144 19.7672 70.0208 29.5864 67.8472 39.7096C65.2024 52.1432 54.1824 56.5816 44.7584 56.5816Z" fill="#0B1623"/>
<path d="M41.3232 46.3824C41.0648 44.2544 39.256 42.6584 37.128 42.6584C36.9608 42.6584 36.7784 42.6736 36.6112 42.6888C35.4864 42.8256 34.4832 43.388 33.784 44.2848C33.0848 45.1816 32.7808 46.2912 32.9176 47.416C33.176 49.544 34.9848 51.14 37.1128 51.14C37.28 51.14 37.4624 51.1248 37.6296 51.1096C39.9552 50.8208 41.612 48.708 41.3232 46.3824Z" fill="#00ADEE"/>
<path d="M37.128 42.172C36.9456 42.172 36.748 42.1872 36.5504 42.2024C35.304 42.3544 34.1792 42.9776 33.404 43.9808C32.6288 44.9688 32.2792 46.2 32.4312 47.4616C32.72 49.8328 34.7264 51.6112 37.1128 51.6112C37.2952 51.6112 37.4928 51.596 37.6904 51.5808C40.2744 51.2768 42.1136 48.9208 41.8096 46.3368C41.5208 43.9656 39.5144 42.172 37.128 42.172ZM32.9176 47.4008C32.7808 46.276 33.0848 45.1664 33.784 44.2696C34.4832 43.3728 35.4864 42.8104 36.6112 42.6736C36.7784 42.6584 36.9608 42.6432 37.128 42.6432C39.2712 42.6432 41.08 44.2392 41.3232 46.3672C41.5968 48.6928 39.94 50.8056 37.6296 51.0792C37.4624 51.0944 37.28 51.1096 37.1128 51.1096C34.9848 51.14 33.176 49.5288 32.9176 47.4008Z" fill="#0B1623"/>
<path d="M55.976 45.44C55.7176 43.312 53.9088 41.716 51.7808 41.716C51.6136 41.716 51.4312 41.7312 51.264 41.7464C50.1392 41.8832 49.136 42.4456 48.4368 43.3424C47.7376 44.2392 47.4336 45.3488 47.5704 46.4736C47.8288 48.6016 49.6376 50.1976 51.7656 50.1976C51.9328 50.1976 52.1152 50.1824 52.2824 50.1672C54.5928 49.8784 56.2648 47.7656 55.976 45.44Z" fill="#EB008B"/>
<path d="M51.7808 41.2296C51.5984 41.2296 51.4008 41.2448 51.2032 41.26C49.9568 41.412 48.832 42.0352 48.0568 43.0384C47.2816 44.0264 46.932 45.2576 47.084 46.5192C47.3728 48.8904 49.3792 50.6688 51.7656 50.6688C51.948 50.6688 52.1456 50.6536 52.3432 50.6384C54.9272 50.3192 56.7664 47.9784 56.4624 45.3944C56.1736 43.008 54.152 41.2296 51.7808 41.2296ZM47.5552 46.4584C47.4184 45.3336 47.7224 44.224 48.4216 43.3272C49.1208 42.4304 50.124 41.868 51.2488 41.7312C51.416 41.716 51.5984 41.7008 51.7656 41.7008C53.9088 41.7008 55.7176 43.2968 55.9608 45.4248C56.2344 47.7504 54.5776 49.8632 52.2672 50.1368C52.1 50.152 51.9176 50.1672 51.7504 50.1672C49.6224 50.1824 47.8136 48.5864 47.5552 46.4584Z" fill="#0B1623"/>
<path d="M65.9624 34.8C65.704 32.672 63.8952 31.076 61.7672 31.076C61.6 31.076 61.4176 31.0912 61.2504 31.1064C58.9248 31.38 57.268 33.508 57.5568 35.8184C57.8152 37.9464 59.624 39.5424 61.752 39.5424C61.9192 39.5424 62.1016 39.5272 62.2688 39.512C64.5944 39.2384 66.2512 37.1256 65.9624 34.8Z" fill="#FFF100"/>
<path d="M61.7672 30.5896C61.5848 30.5896 61.3872 30.6048 61.1896 30.62C58.6056 30.9392 56.7664 33.28 57.0704 35.864C57.3592 38.2352 59.3656 40.0136 61.752 40.0136C61.9344 40.0136 62.132 39.9984 62.3296 39.9832C64.9136 39.6792 66.7528 37.3232 66.4488 34.7392C66.16 32.3832 64.1536 30.5896 61.7672 30.5896ZM57.5568 35.8184C57.2832 33.4928 58.94 31.38 61.2504 31.1064C61.4176 31.0912 61.6 31.076 61.7672 31.076C63.9104 31.076 65.7192 32.672 65.9624 34.8C66.236 37.1256 64.5792 39.2384 62.2688 39.512C62.1016 39.5272 61.9192 39.5424 61.752 39.5424C59.624 39.5424 57.8152 37.9464 57.5568 35.8184Z" fill="#0B1623"/>
<path d="M54.9728 19.372C54.2736 20.2688 53.9696 21.3784 54.1064 22.5032C54.3648 24.6312 56.1736 26.2272 58.3016 26.2272C58.4688 26.2272 58.6512 26.212 58.8184 26.1968C61.144 25.9232 62.8008 23.7952 62.512 21.4848C62.2536 19.3568 60.4448 17.7608 58.3168 17.7608C58.1496 17.7608 57.9672 17.776 57.8 17.7912C56.6752 17.9128 55.672 18.4904 54.9728 19.372Z" fill="#6D6E70"/>
<path d="M58.3016 26.7136C58.484 26.7136 58.6816 26.6984 58.8792 26.6832C61.4632 26.364 63.3024 24.0232 62.9984 21.4392C62.7096 19.068 60.7032 17.2896 58.3168 17.2896C58.1344 17.2896 57.9368 17.3048 57.7392 17.32C56.4928 17.472 55.368 18.0952 54.5928 19.0984C53.8176 20.1016 53.468 21.3176 53.62 22.5792C53.9088 24.92 55.9152 26.7136 58.3016 26.7136ZM62.512 21.4848C62.7856 23.8104 61.1288 25.9232 58.8184 26.1968C58.6512 26.212 58.4688 26.2272 58.3016 26.2272C56.1584 26.2272 54.3496 24.6312 54.1064 22.5032C53.9696 21.3784 54.2736 20.2688 54.9728 19.372C55.672 18.4752 56.6752 17.9128 57.8 17.776C57.9672 17.7608 58.1496 17.7456 58.3168 17.7456C60.4448 17.7456 62.2536 19.3568 62.512 21.4848Z" fill="#0B1623"/>
<path d="M50.048 15.6936C49.592 11.9392 46.8864 9.112 43.7552 9.112C43.5576 9.112 43.3448 9.1272 43.1472 9.1424C39.8336 9.5376 37.5232 13.1248 38.0096 17.1376C38.4656 20.892 41.1712 23.7192 44.3024 23.7192C44.5 23.7192 44.7128 23.704 44.9104 23.6888C48.224 23.2784 50.5344 19.6912 50.048 15.6936ZM44.3024 23.2328C41.4144 23.2328 38.9216 20.588 38.496 17.0768C38.04 13.3376 40.168 9.9784 43.2232 9.6136C43.4056 9.5984 43.588 9.5832 43.7704 9.5832C46.6584 9.5832 49.1512 12.228 49.5768 15.7392C50.0328 19.4784 47.9048 22.8376 44.8496 23.2024C44.6672 23.2328 44.4848 23.2328 44.3024 23.2328Z" fill="#0B1623"/>
<path d="M10.4976 31.988C11.8656 33.4016 15.9848 35.4992 17.3832 35.4992C17.5048 35.4992 17.5808 35.484 17.6112 35.4688C19.4048 34.7088 31.6104 12.5168 31.7168 3.89837C31.732 2.42397 31.3672 1.49677 30.6376 1.16237C30.44 1.07117 30.2272 1.02557 29.9992 1.02557C27.5368 1.02557 23.2048 6.22397 17.8392 15.648C13.3856 23.4608 10.1328 30.772 10.1024 31.3344C10.0872 31.4104 10.1176 31.608 10.4976 31.988Z" fill="#007BC0"/>
<path d="M14.2824 39.7704C14.252 39.7704 14.2216 39.7704 14.1912 39.7704C13.3856 39.7704 11.2272 38.676 9.8744 37.7184C9.9656 37.916 10.072 38.1288 10.1328 38.3264C10.5432 39.6184 10.5584 41.1688 10.5432 42.5064C10.5432 44.4672 9.8744 45.8504 8.476 47.2032C9.2664 46.7472 10.6344 46.352 11.0144 45.5008C10.1632 47.2336 8.6736 48.5712 7.1992 49.8328C5.7248 51.0792 3.5056 52.7056 1.4232 52.888C1.4232 52.9032 1.408 52.9184 1.3928 52.9336C1.9552 53.0704 2.5632 53.1312 3.1712 53.1312C8.628 53.1312 14.0848 48.2064 15.1488 43.9656C15.468 42.704 15.4984 41.1232 14.4496 39.7096C14.404 39.7552 14.3432 39.7704 14.2824 39.7704Z" fill="#332C37"/>
<path d="M13.7048 39.208C14.48 38.1744 14.8904 36.928 15.3312 35.6816C15.3616 35.6056 15.392 35.5448 15.4224 35.4688C14.2672 35.0128 12.9144 34.3136 11.8048 33.5992C12.6256 34.6936 12.8536 36.8976 12.884 37.8856C12.884 38.22 12.8992 38.5544 12.884 38.8736C13.1728 39.0104 13.4616 39.132 13.7048 39.208Z" fill="#F5882A"/>
<path d="M30.6224 1.16236C30.592 1.14716 30.5616 1.14716 30.5312 1.13196C30.4552 7.80476 27.7952 13.4744 23.7824 18.688C22.2472 20.6792 20.6208 22.5792 18.9944 24.4792C17.748 25.9384 16.3496 27.2152 15.1032 28.644C13.9176 30.012 12.9296 31.608 11.82 33.0368C13.6288 34.2528 16.304 35.484 17.368 35.484C17.4896 35.484 17.5656 35.4688 17.596 35.4536C19.3896 34.6936 31.5952 12.5016 31.7016 3.88316C31.732 2.42396 31.3672 1.49676 30.6224 1.16236Z" fill="#0068A3"/>
<path d="M66.8136 43.2208C66.3424 43.4336 65.8864 43.6464 65.4 43.8288C62.2536 45.0904 59.3352 46.3824 56.3104 47.2336C55.7936 48.9968 54.2736 50.38 52.3432 50.608C52.1608 50.6384 51.9632 50.6384 51.7656 50.6384C49.9872 50.6384 48.4216 49.6504 47.616 48.1608C45.4728 48.0392 43.5424 47.7504 41.84 46.8992C41.8248 49.24 40.0768 51.2616 37.6904 51.5504C37.508 51.5808 37.3104 51.5808 37.1128 51.5808C34.7264 51.5808 32.72 49.8024 32.4312 47.4312C32.2792 46.1848 32.6288 44.9384 33.404 43.9504C34.1792 42.9624 35.304 42.324 36.5504 42.172C36.7328 42.1416 36.9304 42.1416 37.128 42.1416C37.204 42.1416 37.28 42.1416 37.356 42.1568C36.6112 40.4696 36.4592 38.6608 36.976 36.7456C37.736 33.964 39.104 31.5776 40.5936 29.1608C41.6728 27.3824 42.2352 25.3304 42.2352 23.2632C40.0464 22.336 38.3592 20.0104 38.0096 17.1072C37.8728 15.9976 37.964 14.9184 38.2224 13.9304C37.7512 13.1856 37.3712 12.3648 37.28 11.468C37.0064 8.99037 38.268 7.22717 40.016 5.73757L39.7728 5.60077C31.58 8.53437 33.0696 13.8848 34.6352 19.5392C35.5776 22.9288 36.5504 26.4248 35.1368 29.252C33.8904 31.76 32.0056 33.5232 30.1968 35.2408C26.7008 38.5392 23.6912 41.3816 26.5944 48.3888C28.5552 53.116 36.2008 56.536 44.7584 56.5512C53.24 56.5816 62.9984 52.9944 66.8136 43.2208Z" fill="#FBB355"/>
<path d="M35.684 44.4064C34.3616 44.9232 33.5104 46.2456 34.6504 48.3432C35.9576 50.76 39.0584 49.9544 39.7576 47.5072C40.5936 44.6496 37.6296 43.6464 35.684 44.4064Z" fill="#0093CB"/>
<path d="M50.3976 43.5248C49.0752 44.0416 48.2392 45.364 49.364 47.4616C50.6712 49.8784 53.772 49.0728 54.4712 46.6256C55.3072 43.768 52.3432 42.7648 50.3976 43.5248Z" fill="#C60077"/>
<path d="M60.6272 32.7328C59.3048 33.2496 58.4536 34.572 59.5936 36.6696C60.9008 39.0864 64.0016 38.2808 64.7008 35.8336C65.5368 32.9608 62.5728 31.9728 60.6272 32.7328Z" fill="#FFC30C"/>
<path d="M57.116 19.6152C55.7936 20.132 54.9424 21.4544 56.0824 23.552C57.3896 25.9688 60.4904 25.1632 61.1896 22.716C62.0256 19.8584 59.0616 18.8552 57.116 19.6152Z" fill="#4D4D4F"/>
</svg>
