<svg width="62" height="48" viewBox="0 0 62 48" fill="none" xmlns="http://www.w3.org/2000/svg">
<path d="M60.3484 36.2316C61.2085 36.2316 61.9156 36.6902 61.9156 37.2636V46.9147C61.9156 47.488 61.2085 47.9467 60.3484 47.9467H1.81111C0.951114 47.9467 0.244003 47.488 0.244003 46.9147V37.2636C0.244003 36.6902 0.951114 36.2316 1.81111 36.2316H60.3484Z" fill="#61313E"/>
<path d="M60.3484 36.2316C61.2085 36.2316 61.9156 36.6902 61.9156 37.2636V46.9147C61.9156 47.488 61.2085 47.9467 60.3484 47.9467H1.81111C0.951114 47.9467 0.244003 47.488 0.244003 46.9147V37.2636C0.244003 36.6902 0.951114 36.2316 1.81111 36.2316H60.3484Z" fill="#63A343"/>
<path d="M0.244003 46.9147C0.244003 47.488 0.951114 47.9467 1.81111 47.9467H60.3484C61.2085 47.9467 61.9156 47.488 61.9156 46.9147V44.8698H0.244003V46.9147Z" fill="#4F823C"/>
<path d="M51.6529 36.2316H49.3596V47.9467H51.6529V36.2316Z" fill="#FFC23A"/>
<path d="M55.2649 36.2316H52.9716V47.9467H55.2649V36.2316Z" fill="#FFC23A"/>
<path d="M34.1089 35.6965C34.1089 36.8432 32.9049 37.7796 31.3951 37.7796C29.9044 37.7796 28.6813 36.8432 28.6813 35.6965C28.6813 34.5498 29.8853 33.6134 31.3951 33.6134C32.8858 33.5943 34.1089 34.5307 34.1089 35.6965Z" fill="#D13431"/>
<path d="M59.2018 36.996H3.22533L4.14267 2.0036H58.4947L59.2018 36.996Z" fill="#EA5645"/>
<path d="M33.5929 35.6965C33.5929 36.6138 32.6182 37.3591 31.3951 37.3591C30.1911 37.3591 29.1973 36.6138 29.1973 35.6965C29.1973 34.7791 30.172 34.0338 31.3951 34.0338C32.5991 34.0338 33.5929 34.7791 33.5929 35.6965Z" fill="#B4B4B4"/>
<path d="M31.5098 2.13738C31.5098 2.13738 34.816 0.321826 39.6893 0.551159C44.5627 0.780492 57.4436 2.25205 57.4436 2.25205V35.7729C57.4436 35.7729 44.0084 33.6707 36.5551 34.244C33.1916 34.5116 31.3569 35.7729 31.3569 35.7729C31.3569 35.7729 31.6053 2.23294 31.5098 2.13738Z" fill="#E7E5E5"/>
<path d="M36.5742 34.244C33.2107 34.5116 31.376 35.7729 31.376 35.7729V36.136H57.4436V35.7729C57.4627 35.7729 44.0084 33.6707 36.5742 34.244Z" fill="#B4B4B4"/>
<path d="M31.4525 2.2138C31.4525 2.2138 27.8596 0.360019 22.9862 0.589352C18.1129 0.818685 5.32756 2.27113 5.32756 2.27113V35.792C5.32756 35.792 18.7627 33.6898 26.216 34.2631C29.5796 34.5307 31.4142 35.792 31.4142 35.792C31.4142 35.792 31.3569 2.30935 31.4525 2.2138Z" fill="#E2E0DF"/>
<path d="M26.216 34.2631C29.5796 34.5307 31.4142 35.792 31.4142 35.792V36.1551H5.32756V35.792C5.32756 35.792 18.7627 33.6898 26.216 34.2631Z" fill="#B4B4B4"/>
<path d="M31.4524 2.21381L31.3951 35.792C31.3951 35.792 34.7396 33.7854 40.9889 34.1676L39.6893 0.57025C39.6893 0.57025 33.1151 -0.270639 31.4524 2.21381Z" fill="#D8D6D6"/>
<path d="M39.6702 15.1138L37.9311 17.216L36.192 15.1138V0.417358H39.6702V15.1138Z" fill="#EA5645"/>
<path d="M31.376 36.6712L31.3951 35.792C31.3951 35.792 28.6813 31.9316 5.32756 35.792V36.1552C5.32756 36.1552 27.936 33.9956 31.376 36.6712Z" fill="#D8D6D6"/>
<path d="M31.3951 35.792C31.3951 35.792 34.4338 32.0271 57.4436 35.7729V36.136C57.4436 36.136 35.3702 33.8809 31.376 36.652L31.3951 35.792Z" fill="#D8D6D6"/>
<path d="M24.5916 36.1552V36.996H29.1973H30.0573C30.0573 36.996 29.3693 36.5756 29.2929 36.136L24.5916 36.1552Z" fill="#D13431"/>
<path d="M38.1987 36.1552V36.996H33.5929H32.7329C32.7329 36.996 33.4209 36.5756 33.4973 36.136L38.1987 36.1552Z" fill="#D13431"/>
<path d="M19.0302 36.6711H6.07289V47.9658H19.0302V36.6711Z" fill="#EA5645"/>
<path d="M19.0302 44.908H6.07289V47.9467H19.0302V44.908Z" fill="#D13431"/>
<path d="M15.8578 36.6711H10.1053V47.9658H15.8578V36.6711Z" fill="#FFC23A"/>
<path d="M15.8769 44.908H10.1053V47.9467H15.8769V44.908Z" fill="#F9A431"/>
</svg>
