<svg width="46" height="55" viewBox="0 0 46 55" fill="none" xmlns="http://www.w3.org/2000/svg">
<path d="M38.7889 15.3489H29.3156H19.8422H10.3689H7.33555C7.35111 15.2089 7.38222 15.0845 7.38222 14.9445C7.38222 14.8511 7.36666 14.7422 7.35111 14.6489L10.3222 14.2445L19.7022 12.9689L29.0822 11.6933L38.4622 10.4178L45.5867 9.45334L44.6222 2.3289L44.4044 0.711121L36.6422 1.7689L27.2622 3.04445L17.8667 4.30445L8.47111 5.58001L0.242218 6.70001L1.36222 14.9289L1.42444 15.3333H1.40888V15.8467V24.1533V54.2533H45.9756V24.1533V22.52V15.3333H38.7889V15.3489ZM29.3156 16.1578H30.14L37.3267 23.3445H28.6778H27.8533L20.6667 16.1578H29.3156ZM27.0133 30.2511V36.9711H25.2089V30.2511H27.0133ZM19.3444 31.8533V30.2511H24.6178V31.8533H22.8444V36.9711H21.04V31.8533H19.3444ZM17.1044 35.4467C18.0844 35.4467 18.9867 35.3689 18.9867 35.3689V36.7533C18.4111 36.9867 17.9133 37.08 16.5444 37.0489C14.8333 37.0178 14.1956 35.8667 14.1956 33.6111C14.1956 31.4645 14.6933 30.1889 16.5444 30.1889C17.8822 30.1889 18.1933 30.2667 18.9867 30.5622V31.9467C18.9711 31.9467 18.0533 31.7911 17.0889 31.7911C16.3111 31.7911 15.9844 31.76 15.9844 33.6267C15.9844 35.12 16.1556 35.4467 17.1044 35.4467ZM44.6689 8.73779L39.1778 9.48445L43.9222 3.24668L44.6689 8.73779ZM27.3556 3.83779L35.9267 2.67112L29.7822 10.7445L28.9733 10.8533L20.4022 12.02L26.5467 3.94668L27.3556 3.83779ZM7.77111 6.49779L8.58 6.3889L17.1511 5.22223L11.0067 13.3111L10.1978 13.42L7.10222 13.84C6.69777 13.0778 5.92 12.5489 5.00222 12.5489C3.85111 12.5489 2.90222 13.3578 2.66889 14.4467L2.14 14.5245L2.07777 14.0267L7.77111 6.49779ZM2.63777 15.2711C2.63777 15.3022 2.63777 15.3178 2.63777 15.3489H2.09333L2.63777 15.2711ZM2.21777 16.1578H2.94888C3.36889 16.8422 4.11555 17.3089 4.98666 17.3089C5.85777 17.3089 6.60444 16.8422 7.02444 16.1578H10.3689H11.1933L18.38 23.3445H9.73111H8.90666L2.23333 16.6711V16.1578H2.21777ZM7.81777 36.9867L9.94889 30.2667H12.08L14.1333 36.9867H12.2667L11.8622 35.8045H10.0422L9.65333 36.9867H7.81777ZM15.7667 48L15.3 44.3289L14.74 48H12.6867L12.0956 44.3289L11.6756 48H9.90222L10.6333 41.28H13.1378L13.7133 45.06L14.32 41.28H16.8244L17.5556 48H15.7667ZM20.7911 48.0467C19.1267 48.0467 17.9756 47.7511 17.9756 44.6867C17.9756 41.5289 19.2356 41.2333 20.7911 41.2333C22.3933 41.2333 23.6067 41.5289 23.6067 44.6867C23.5911 47.6578 22.4556 48.0467 20.7911 48.0467ZM27.8222 48H25.6444L23.7311 41.28H25.6289L26.7489 45.8222L27.9622 41.28H29.8444L27.8222 48ZM32.1933 48H30.3889V41.28H32.1933V48ZM30.4667 37.0178C28.8022 37.0178 27.6511 36.7222 27.6511 33.6733C27.6511 30.5156 28.9111 30.22 30.4667 30.22C32.0689 30.22 33.2822 30.5156 33.2822 33.6733C33.2822 36.6289 32.1311 37.0178 30.4667 37.0178ZM37.6378 42.9289H35.1644C34.6822 42.9289 34.6822 43.1933 34.6822 43.4422V43.8467L37.1711 43.94V45.4178L34.6822 45.4956V45.9C34.6822 46.3822 34.9933 46.3822 35.2578 46.3822H37.6378V47.8756C36.6889 48 34.6978 48.0311 34.6978 48.0311C34.0911 48.0467 32.8778 47.9378 32.8778 46.5222V42.8356C32.8778 41.4511 33.9511 41.28 34.6044 41.28C34.6044 41.28 36.5489 41.28 37.6378 41.42V42.9289ZM39.4733 36.9867H37.6689L35.7244 33.6422V36.9867H33.92V30.2667H35.74L37.6844 33.7045V30.2667H39.4889V36.9867H39.4733ZM39.5978 16.1578H45.1355V21.6956L39.5978 16.1578Z" fill="#FAFBFD"/>
<path d="M20.7911 42.8356C19.9822 42.8356 19.78 43.0534 19.78 44.6867C19.78 46.0867 19.8889 46.4445 20.7911 46.4445C21.5844 46.4445 21.8022 46.1178 21.8022 44.6867C21.8022 43.1311 21.6311 42.8356 20.7911 42.8356Z" fill="#FAFBFD"/>
<path d="M30.4667 31.8067C29.6422 31.8067 29.4556 32.0244 29.4556 33.6578C29.4556 35.0578 29.5644 35.4156 30.4667 35.4156C31.26 35.4156 31.4778 35.0889 31.4778 33.6578C31.4778 32.1022 31.3067 31.8067 30.4667 31.8067Z" fill="#FAFBFD"/>
<path d="M11.0222 32.4911L10.4622 34.2956H11.52L11.0222 32.4911Z" fill="#FAFBFD"/>
</svg>
