<svg width="53" height="59" viewBox="0 0 53 59" fill="none" xmlns="http://www.w3.org/2000/svg">
<path d="M19.4476 8.56302C19.1048 8.60159 18.7238 8.62087 18.3048 8.64016" stroke="#F2F2F2" stroke-width="3" stroke-linecap="round" stroke-linejoin="round"/>
<path d="M16.0381 8.77515C9.71429 9.12228 -0.24762 9.93225 1.77143 16.0456C3.73333 22.0047 12.4952 22.9882 12.3429 30.4708C12.1905 37.722 3.92381 44.4139 7.21905 52.0315C11.581 62.1369 26.781 55.3485 32.7048 50.6044C42.0381 43.1411 44.8191 32.9586 41.2381 22.1011C41.1238 21.7347 40.9905 21.349 40.8571 20.9826" stroke="#F2F2F2" stroke-width="3" stroke-linecap="round" stroke-linejoin="round" stroke-dasharray="11.88 11.88"/>
<path d="M40.4381 19.9219C40.3048 19.5555 40.1714 19.2084 40.0191 18.8419" stroke="#F2F2F2" stroke-width="3" stroke-linecap="round" stroke-linejoin="round"/>
<path d="M29.6762 0.0776062H28.381V27.5588H29.6762V0.0776062Z" fill="#14344A"/>
<path d="M13.5238 0.0776062V27.5588H28.381V0.0776062H13.5238ZM24.819 1.119C25.9619 1.119 26.8762 2.06397 26.8762 3.22107C26.8762 4.37817 25.9619 5.32314 24.819 5.32314C23.6762 5.32314 22.7619 4.37817 22.7619 3.22107C22.7619 2.06397 23.6762 1.119 24.819 1.119ZM24.819 6.51881C25.9619 6.51881 26.8762 7.46378 26.8762 8.62088C26.8762 9.77798 25.9619 10.7229 24.819 10.7229C23.6762 10.7229 22.7619 9.77798 22.7619 8.62088C22.7619 7.46378 23.6762 6.51881 24.819 6.51881ZM17.981 3.16321C19.7143 3.16321 21.1048 4.5903 21.1048 6.34524C21.1048 8.10018 19.7143 9.52728 17.981 9.52728C16.2476 9.52728 14.8571 8.10018 14.8571 6.34524C14.8571 4.5903 16.2667 3.16321 17.981 3.16321ZM21.2381 10.6651C25.0095 10.6651 28.0571 13.7893 28.0571 17.627C28.0571 21.4647 25.0095 24.5889 21.2381 24.5889C17.4667 24.5889 14.419 21.4647 14.419 17.627C14.419 13.7893 17.4667 10.6651 21.2381 10.6651ZM28.3048 27.0381H27.9238H15.0095V25.1867H27.9238H28.3048V27.0381Z" fill="#1C3E59"/>
<path d="M21.2381 24.6082C25.0095 24.6082 28.0571 21.484 28.0571 17.6463C28.0571 13.8086 25.0095 10.6844 21.2381 10.6844C17.4667 10.6844 14.4191 13.8086 14.4191 17.6463C14.4191 21.484 17.4667 24.6082 21.2381 24.6082ZM21.2381 11.2244C24.7048 11.2244 27.5048 14.0978 27.5048 17.627C27.5048 21.1562 24.7048 24.0296 21.2381 24.0296C17.7714 24.0296 14.9714 21.1562 14.9714 17.627C14.9714 14.0978 17.7714 11.2244 21.2381 11.2244Z" fill="#091B23"/>
<path d="M21.2381 24.0489C24.7048 24.0489 27.5048 21.1754 27.5048 17.6463C27.5048 14.1171 24.7048 11.2437 21.2381 11.2437C17.7714 11.2437 14.9714 14.1171 14.9714 17.6463C14.9714 21.1754 17.7714 24.0489 21.2381 24.0489ZM21.2381 12.96C23.7714 12.96 25.8095 15.0621 25.8095 17.6463C25.8095 19.3819 24.8762 20.9055 23.5048 21.7154C22.8381 22.1011 22.0571 22.3326 21.219 22.3326C20.381 22.3326 19.619 22.1011 18.9333 21.7154C17.5619 20.9055 16.6286 19.4012 16.6286 17.6463C16.6667 15.0428 18.7048 12.96 21.2381 12.96Z" fill="#092230"/>
<path d="M18.9524 21.6961L20.4952 18.9769C20.0952 18.7262 19.8286 18.2634 19.8286 17.7427C19.8286 17.087 20.2476 16.547 20.8191 16.3542C20.9524 16.3156 21.1048 16.277 21.2571 16.277C22.0381 16.277 22.6667 16.9327 22.6667 17.7234C22.6667 18.2441 22.4 18.707 22 18.9577L23.5238 21.6769C24.8952 20.8669 25.8286 19.3627 25.8286 17.6077C25.8286 15.0235 23.7714 12.9214 21.2571 12.9214C18.7238 12.9214 16.6857 15.0235 16.6857 17.6077C16.6667 19.3819 17.581 20.8862 18.9524 21.6961Z" fill="#D1DBBE"/>
<path d="M21.0857 16.5085C21.4476 16.7206 21.6952 17.087 21.7714 17.5113C21.7143 17.087 21.4476 16.7206 21.0857 16.5085Z" fill="#D1DBBE"/>
<path d="M21.2381 19.2084V22.3133C22.0762 22.3133 22.8381 22.0819 23.5238 21.6962L22 18.977C21.7714 19.112 21.5048 19.2084 21.2381 19.2084Z" fill="#E8EFD6"/>
<path d="M20.8 19.1312C20.6857 19.0927 20.5905 19.0348 20.4952 18.977L18.9524 21.6962C19.6191 22.0819 20.4 22.3133 21.2381 22.3133V19.1891C21.0857 19.2084 20.9333 19.1698 20.8 19.1312Z" fill="#F2F7E8"/>
<path d="M21.7714 17.5113C21.7905 17.5884 21.7905 17.6656 21.7905 17.7427C21.7905 18.3984 21.3714 18.9384 20.8 19.1312C20.9333 19.1698 21.0857 19.2084 21.2381 19.2084C21.5048 19.2084 21.7714 19.1312 21.981 18.9962C22.381 18.7455 22.6476 18.2827 22.6476 17.762C22.6476 16.9713 22.0191 16.3156 21.2381 16.3156C21.0857 16.3156 20.9524 16.3349 20.8 16.3928C20.8952 16.4313 20.9905 16.4699 21.0857 16.5277C21.4476 16.7206 21.7143 17.087 21.7714 17.5113Z" fill="#091B23"/>
<path d="M20.8 19.1312C21.3714 18.9384 21.7905 18.3984 21.7905 17.7427C21.7905 17.6656 21.7905 17.5884 21.7714 17.5113C21.6952 17.087 21.4476 16.7206 21.0857 16.5085C20.9905 16.4506 20.8952 16.412 20.8 16.3735C20.2286 16.5663 19.8095 17.1063 19.8095 17.762C19.8095 18.2827 20.0762 18.7263 20.4762 18.9962C20.5905 19.0348 20.6857 19.0927 20.8 19.1312Z" fill="#092230"/>
<path d="M24.819 5.32313C25.9619 5.32313 26.8762 4.37816 26.8762 3.22106C26.8762 2.06396 25.9619 1.11899 24.819 1.11899C23.6762 1.11899 22.7619 2.06396 22.7619 3.22106C22.7619 4.37816 23.6762 5.32313 24.819 5.32313ZM24.819 1.63968C25.6762 1.63968 26.3619 2.35323 26.3619 3.22106C26.3619 4.08888 25.6762 4.80243 24.819 4.80243C23.9619 4.80243 23.2762 4.08888 23.2762 3.22106C23.2762 2.35323 23.9619 1.63968 24.819 1.63968Z" fill="#092230"/>
<path d="M24.819 4.80246C25.6762 4.80246 26.3619 4.08891 26.3619 3.22108C26.3619 2.35326 25.6762 1.63971 24.819 1.63971C23.9619 1.63971 23.2762 2.35326 23.2762 3.22108C23.2762 4.08891 23.9619 4.80246 24.819 4.80246ZM24.819 1.75542C25.619 1.75542 26.2667 2.41111 26.2667 3.22108C26.2667 4.03105 25.619 4.68675 24.819 4.68675C24.0191 4.68675 23.3714 4.03105 23.3714 3.22108C23.3714 2.41111 24.0191 1.75542 24.819 1.75542Z" fill="#1C3E59"/>
<path d="M24.819 4.68673C25.619 4.68673 26.2667 4.03104 26.2667 3.22106C26.2667 2.41109 25.619 1.7554 24.819 1.7554C24.019 1.7554 23.3714 2.41109 23.3714 3.22106C23.3714 4.03104 24.019 4.68673 24.819 4.68673Z" fill="#091B23"/>
<path d="M24.819 10.7229C25.9619 10.7229 26.8762 9.77797 26.8762 8.62087C26.8762 7.46377 25.9619 6.5188 24.819 6.5188C23.6762 6.5188 22.7619 7.46377 22.7619 8.62087C22.7619 9.77797 23.6762 10.7229 24.819 10.7229ZM24.819 7.0395C25.6762 7.0395 26.3619 7.75304 26.3619 8.62087C26.3619 9.4887 25.6762 10.2022 24.819 10.2022C23.9619 10.2022 23.2762 9.4887 23.2762 8.62087C23.2571 7.75304 23.9619 7.0395 24.819 7.0395Z" fill="#092230"/>
<path d="M24.8191 10.2023C25.6762 10.2023 26.3619 9.48872 26.3619 8.62089C26.3619 7.75307 25.6762 7.03952 24.8191 7.03952C23.9619 7.03952 23.2762 7.75307 23.2762 8.62089C23.2571 9.48872 23.9619 10.2023 24.8191 10.2023ZM24.8191 7.15523C25.6191 7.15523 26.2667 7.81092 26.2667 8.62089C26.2667 9.43087 25.6191 10.0866 24.8191 10.0866C24.0191 10.0866 23.3714 9.43087 23.3714 8.62089C23.3714 7.81092 24.0191 7.15523 24.8191 7.15523Z" fill="#1C3E59"/>
<path d="M24.819 10.0865C25.619 10.0865 26.2667 9.43085 26.2667 8.62088C26.2667 7.8109 25.619 7.15521 24.819 7.15521C24.019 7.15521 23.3714 7.8109 23.3714 8.62088C23.3714 9.43085 24.019 10.0865 24.819 10.0865Z" fill="#091B23"/>
<path d="M28.3048 25.1867H27.9238V27.0381H28.3048V25.1867Z" fill="#092230"/>
<path d="M27.9238 25.1867H15.0095V27.0381H27.9238V25.1867Z" fill="#14344A"/>
<path d="M17.981 9.54656C19.7143 9.54656 21.1048 8.11947 21.1048 6.36453C21.1048 4.60959 19.7143 3.1825 17.981 3.1825C16.2476 3.1825 14.8571 4.60959 14.8571 6.36453C14.8571 8.11947 16.2667 9.54656 17.981 9.54656ZM17.981 3.9539C19.2762 3.9539 20.3238 5.03386 20.3238 6.36453C20.3238 7.6952 19.2762 8.77516 17.981 8.77516C16.6857 8.77516 15.6381 7.6952 15.6381 6.36453C15.6381 5.03386 16.6857 3.9539 17.981 3.9539Z" fill="#091B23"/>
<path d="M17.981 8.75586C19.2762 8.75586 20.3238 7.6759 20.3238 6.34523C20.3238 5.01456 19.2762 3.9346 17.981 3.9346C16.6857 3.9346 15.6381 5.01456 15.6381 6.34523C15.6381 7.6759 16.6857 8.75586 17.981 8.75586ZM17.981 5.0917C18.6667 5.0917 19.2191 5.67025 19.2191 6.36452C19.2191 7.07806 18.6667 7.63733 17.981 7.63733C17.2952 7.63733 16.7429 7.05878 16.7429 6.36452C16.7429 5.65097 17.2952 5.0917 17.981 5.0917Z" fill="#092230"/>
<path d="M17.981 7.63733C18.6667 7.63733 19.219 7.05878 19.219 6.36452C19.219 5.65097 18.6667 5.09171 17.981 5.09171C17.2952 5.09171 16.7429 5.67026 16.7429 6.36452C16.7429 7.05878 17.2952 7.63733 17.981 7.63733Z" fill="#091B23"/>
<path d="M26.9524 41.3669C26.8952 40.9812 26.5714 40.7112 26.2095 40.6919C25.7905 38.9948 24.9905 37.452 23.9048 36.1599C24.0952 35.8321 24.0571 35.4078 23.7905 35.1378C23.5238 34.8678 23.1048 34.8293 22.8 35.0221C21.0857 33.4986 18.9143 32.5343 16.5143 32.3415C16.4381 31.9751 16.1143 31.7051 15.7333 31.7051C15.3524 31.7051 15.0286 31.9751 14.9524 32.3415C13.219 32.4765 11.6 33.0165 10.1905 33.865C9.92381 33.6143 9.50476 33.5757 9.2 33.8071C8.89524 34.0386 8.78095 34.4436 8.91428 34.7907C7.61905 35.8706 6.57143 37.2592 5.86666 38.8405C5.50476 38.802 5.14285 39.0141 5.00952 39.3805C4.87619 39.7469 5.02857 40.1519 5.33333 40.3448C5.06666 41.309 4.91428 42.3119 4.91428 43.3725C4.91428 44.0861 4.99047 44.7803 5.10476 45.4553C4.78095 45.6289 4.60952 46.0146 4.70476 46.4003C4.8 46.786 5.14285 47.0174 5.50476 47.0174C6.05714 48.6566 6.99047 50.1223 8.19047 51.318C8.01905 51.6458 8.09524 52.0701 8.38095 52.3208C8.66666 52.5715 9.08571 52.5715 9.39047 52.3401C10.7238 53.3429 12.3048 54.0179 14 54.3071C14.0571 54.6736 14.3429 54.9821 14.7238 55.0014C15.1048 55.04 15.4476 54.7893 15.5619 54.4421C15.619 54.4421 15.6762 54.4421 15.7143 54.4421C17.4095 54.4421 19.0095 54.0564 20.4381 53.3429C20.6857 53.6129 21.1048 53.69 21.4286 53.4972C21.7524 53.3043 21.9048 52.8993 21.7905 52.5522C23.181 51.588 24.3429 50.2959 25.1619 48.7916C25.5238 48.8688 25.9048 48.6952 26.0571 48.3288C26.2095 47.9817 26.1143 47.5574 25.8286 47.326C26.2857 46.111 26.5333 44.7803 26.5333 43.3918C26.5333 43.0061 26.5143 42.6397 26.4762 42.2733C26.819 42.119 27.0286 41.7526 26.9524 41.3669ZM15.7143 54.1722C9.86666 54.1529 5.14285 49.3123 5.14285 43.3532C5.14285 37.3749 9.88571 32.5536 15.7333 32.5536C21.5809 32.5536 26.3048 37.4135 26.3048 43.3725C26.2857 49.3316 21.5429 54.1722 15.7143 54.1722Z" fill="#1B1B1B"/>
<path d="M15.7333 32.5536C9.88571 32.5536 5.14285 37.3749 5.14285 43.3532C5.14285 49.3316 9.86666 54.1722 15.7143 54.1722L15.7333 32.5536Z" fill="#F5F5F5"/>
<path d="M15.7333 32.5536L15.7143 54.1722C21.5619 54.1722 26.3048 49.3509 26.3048 43.3725C26.3048 37.3942 21.5809 32.5536 15.7333 32.5536Z" fill="#E7E6E6"/>
<path d="M24.0571 24.2803C24.0762 24.3575 24.0762 24.4346 24.0571 24.5117C24.0381 24.6467 24 24.7817 23.9238 24.9167L23.3333 25.9581C22.1905 28.2145 20.6095 31.1844 18.8191 34.405C16.2667 38.9755 13.9429 42.9097 12.5905 44.9732C12.5714 45.3396 12.381 45.8989 12.0762 46.4581C11.7333 47.0753 11.4667 47.2874 11.2381 47.3067C11.2762 47.4031 11.3524 47.461 11.4476 47.5188C11.7333 47.6924 12.0762 47.6345 12.5714 46.7474C12.8952 46.1881 13.0667 45.6289 13.0857 45.2625C14.4381 43.199 16.781 39.2648 19.3143 34.6943C21.1048 31.4736 22.6857 28.5038 23.8286 26.2474L24.4191 25.206C24.4952 25.071 24.5333 24.936 24.5524 24.801C24.5905 24.5696 24.5333 24.3768 24.381 24.2996C24.2857 24.2418 24.1714 24.2418 24.0571 24.2803Z" fill="#F09A07"/>
<path d="M26.5524 26.4403L25.9619 27.4817C24.8191 29.738 23.2381 32.7079 21.4476 35.9285C18.8952 40.4991 16.5714 44.4332 15.219 46.4967C15.2 46.8631 15.0095 47.4224 14.7048 47.9817C14.3619 48.5988 14.0952 48.8109 13.8667 48.8302C13.9048 48.9266 13.981 48.9845 14.0762 49.0423C14.3619 49.2159 14.7048 49.158 15.2 48.2709C15.5238 47.7117 15.6952 47.1524 15.7143 46.786C17.0667 44.7225 19.4095 40.7883 21.9429 36.2178C23.7333 32.9972 25.3143 30.0273 26.4571 27.7709L27.0476 26.7295C27.1238 26.5945 27.1619 26.4596 27.181 26.3246C27.219 26.0931 27.1619 25.9003 27.0095 25.8231C26.9143 25.7653 26.8 25.7653 26.6857 25.8231C26.7048 25.9003 26.7048 25.9774 26.6857 26.0546C26.6667 26.1703 26.6095 26.3053 26.5524 26.4403Z" fill="#F09A07"/>
<path d="M12.0571 46.4774C12.381 45.9181 12.5524 45.3589 12.5714 44.9925C13.9238 42.929 16.2667 38.9948 18.8 34.4243C20.5905 31.2037 22.1714 28.2338 23.3143 25.9774L23.9048 24.936C23.981 24.801 24.0191 24.666 24.0381 24.531C24.0571 24.4539 24.0571 24.3768 24.0381 24.2996C24 24.3189 23.9619 24.3382 23.9238 24.3575C23.7905 24.4346 23.6762 24.5696 23.581 24.7432L22.5333 26.6138C21.2952 28.658 19.8095 31.2615 18.2286 34.0964C15.6952 38.6284 13.6 42.659 12.5524 44.9153C12.2476 45.1082 11.8476 45.571 11.5048 46.1689C11.1619 46.786 11.1238 47.1331 11.2191 47.3452C11.4476 47.3067 11.7143 47.0945 12.0571 46.4774Z" fill="#F8AB14"/>
<path d="M26.2095 26.2474L25.1619 28.118C23.9238 30.1623 22.4381 32.7657 20.8571 35.6006C18.3238 40.1326 16.2286 44.1632 15.1809 46.4195C14.8762 46.6124 14.4762 47.0752 14.1333 47.6731C13.7905 48.2902 13.7524 48.6373 13.8476 48.8495C14.0762 48.8302 14.3429 48.618 14.6857 48.0009C15.0095 47.4417 15.1809 46.8824 15.2 46.516C16.5524 44.4525 18.8952 40.5183 21.4286 35.9478C23.219 32.7272 24.8 29.7573 25.9429 27.5009L26.5333 26.4595C26.6095 26.3245 26.6476 26.1895 26.6667 26.0545C26.6857 25.9774 26.6857 25.9003 26.6667 25.8231C26.6286 25.8424 26.5905 25.8617 26.5524 25.881C26.4381 25.9581 26.3048 26.0931 26.2095 26.2474Z" fill="#F8AB14"/>
<path d="M38.7238 16.8942L39.581 16.5856C39.7524 16.5277 39.8286 16.3349 39.7714 16.1613C39.7143 15.9878 39.5238 15.8913 39.3524 15.9685L38.4952 16.277C38.3238 16.3349 38.2476 16.5277 38.3048 16.7013C38.3619 16.8749 38.5524 16.952 38.7238 16.8942Z" fill="#F09A07"/>
<path d="M39.6 19.4398L40.4571 19.1312C40.6286 19.0734 40.7048 18.8805 40.6476 18.7069C40.5905 18.5334 40.4 18.437 40.2286 18.5141L39.3714 18.8227C39.2 18.8805 39.1238 19.0734 39.181 19.2469C39.2571 19.4012 39.4476 19.4976 39.6 19.4398Z" fill="#F09A07"/>
<path d="M40.4952 21.9661L41.3524 21.6576C41.5238 21.5997 41.6 21.4068 41.5429 21.2333C41.4857 21.0597 41.2952 20.9633 41.1238 21.0404L40.2667 21.349C40.0952 21.4069 40.019 21.5997 40.0762 21.7733C40.1333 21.9275 40.3238 22.024 40.4952 21.9661Z" fill="#F09A07"/>
<path d="M41.3714 24.4925L42.2286 24.1839C42.4 24.126 42.4762 23.9332 42.4191 23.7596C42.3619 23.5861 42.1714 23.4896 42 23.5668L41.1429 23.8753C40.9714 23.9332 40.8952 24.126 40.9524 24.2996C41.0286 24.4732 41.2191 24.5696 41.3714 24.4925Z" fill="#F09A07"/>
<path d="M42.2667 27.0381L43.1238 26.7295C43.2952 26.6717 43.3714 26.4788 43.3143 26.3052C43.2571 26.1317 43.0667 26.0353 42.8952 26.1124L42.0381 26.421C41.8667 26.4788 41.7905 26.6717 41.8476 26.8452C41.9048 26.9995 42.0952 27.0959 42.2667 27.0381Z" fill="#F09A07"/>
<path d="M43.1429 29.5644L44 29.2559C44.1714 29.198 44.2476 29.0052 44.1905 28.8316C44.1333 28.658 43.9429 28.5616 43.7714 28.6388L42.9143 28.9473C42.7429 29.0052 42.6667 29.198 42.7238 29.3716C42.8 29.5452 42.9905 29.6223 43.1429 29.5644Z" fill="#F09A07"/>
<path d="M44.0381 32.1101L44.8952 31.8015C45.0667 31.7437 45.1429 31.5508 45.0857 31.3772C45.0286 31.2037 44.8381 31.1072 44.6667 31.1844L43.8095 31.4929C43.6381 31.5508 43.5619 31.7437 43.619 31.9172C43.6762 32.0715 43.8667 32.1679 44.0381 32.1101Z" fill="#F09A07"/>
<path d="M36.6857 40.904C38.819 42.119 40.6476 43.2954 42.1714 43.9897C40.5143 43.3725 38.4381 42.0226 35.9429 40.5955C36.2476 40.6919 36.5143 40.8076 36.6857 40.904Z" fill="#F8AB14"/>
<path d="M44.9143 7.15521C43.7905 7.27092 43.0286 7.61805 42.019 8.08089C39.581 9.27656 38.3048 12.0922 39.0286 14.7728C39.0476 14.9271 39.0667 15.1006 39.1238 15.2549L45.2952 32.9393C45.4476 33.3829 45.7524 33.7493 46.1333 33.9614C45.981 34.5207 45.6952 34.9064 45.2952 35.0607C45.0286 35.1571 44.7429 35.1378 44.419 35.0028C44.2667 34.9257 44.1143 34.8485 43.9619 34.7521C44.1333 34.7714 44.3048 34.7714 44.4762 34.7135C44.8762 34.5593 45.1619 34.1736 45.3143 33.6143C44.9333 33.4022 44.6286 33.0357 44.4762 32.5922L38.3048 14.9078C38.2476 14.7535 38.2095 14.5992 38.2095 14.4257C37.4857 11.7451 38.7619 8.92943 41.2 7.73376C42.2095 7.29021 42.9524 6.92379 44.0952 6.80808C44.9143 6.73094 45.5619 7.40592 46.381 7.09736L52.5333 4.86029C52.5524 5.111 52.5143 5.34242 52.3809 5.55455L47.181 7.44449C46.3809 7.73376 45.7333 7.05879 44.9143 7.15521Z" fill="#F09A07"/>
<path d="M39.2381 28.9473C39.2571 28.9473 39.2952 28.9666 39.3143 28.9859C39.4286 29.0823 39.5429 29.1787 39.6571 29.2944C39.6571 29.2944 39.6952 29.4487 39.7905 29.6994L33.6 39.5926C33.6191 39.6119 33.6191 39.6505 33.6381 39.6698C33.6952 39.7276 33.7524 39.7855 33.8095 39.8626C33.4286 39.7662 33.1619 39.6891 33.1619 39.6891C33.0476 39.5734 32.9524 39.4576 32.8381 39.3226C32.8191 39.3034 32.8191 39.2841 32.8 39.2455L39.2381 28.9473Z" fill="#F09A07"/>
<path d="M33.4476 39.7469L39.7905 29.6994C40.1524 30.7408 41.3333 33.5372 43.6381 34.6364C43.7524 34.6943 43.8857 34.7135 44 34.7328C44.1524 34.8293 44.3048 34.9064 44.4571 34.9835C44.7619 35.0992 45.0667 35.1378 45.3333 35.0414C45.7333 34.8871 46.0191 34.5014 46.1714 33.9421C45.7905 33.73 45.4857 33.3636 45.3333 32.92L39.1619 15.2357C39.1048 15.0814 39.0667 14.9271 39.0667 14.7535C38.3429 12.0729 39.6191 9.25729 42.0571 8.06162C43.0667 7.61806 43.8095 7.25165 44.9524 7.13594C45.7714 7.0588 46.4191 7.73377 47.2381 7.42521L52.4381 5.53528C52.3238 5.74741 52.1333 5.90169 51.8857 5.99812C51.8857 5.99812 44.781 8.6016 42.4 9.45014C40.9905 9.95155 40.9333 10.5687 40.8381 11.1472C40.7429 11.7258 40.6857 12.1115 40.9905 12.5165C41.2571 12.8829 41.7143 13.095 41.8857 13.5579L44.8191 21.9854L48.0571 31.2615L48.3619 32.1486C50.1905 37.3749 48.6667 42.7554 44.9905 44.0861L44.9714 44.0475C44.2286 44.4911 43.3143 44.3946 42.1714 43.9704C40.6476 43.2568 38.8191 42.0997 36.6857 40.8848C36.5143 40.7883 36.2476 40.6919 35.9429 40.5762C35.9238 40.5569 35.9048 40.5569 35.8857 40.5376C35.4857 40.3062 33.6762 39.8434 33.6191 39.7662C33.581 39.7662 33.4476 39.7855 33.4476 39.7469Z" fill="#F8AB14"/>
<path d="M38.6857 17.3377C38.7619 17.3184 38.8 17.222 38.781 17.1449L38.4381 16.1421C38.4191 16.0649 38.3238 16.0263 38.2476 16.0456C38.1714 16.0649 38.1333 16.1613 38.1524 16.2385L38.4952 17.2413C38.5333 17.3184 38.6095 17.357 38.6857 17.3377Z" fill="#F8AB14"/>
<path d="M39.5619 19.8255C39.6381 19.8062 39.6762 19.7098 39.6571 19.6326L39.3143 18.6298C39.2952 18.5527 39.2 18.5141 39.1238 18.5334C39.0476 18.5527 39.0095 18.6491 39.0286 18.7262L39.3714 19.7291C39.3905 19.8062 39.4857 19.8448 39.5619 19.8255Z" fill="#F8AB14"/>
<path d="M40.4571 22.3518C40.5333 22.3325 40.5714 22.2361 40.5524 22.159L40.1905 21.1561C40.1714 21.079 40.0762 21.0404 40 21.0597C39.9238 21.079 39.8857 21.1754 39.9048 21.2526L40.2476 22.2554C40.2857 22.3518 40.3619 22.3904 40.4571 22.3518Z" fill="#F8AB14"/>
<path d="M41.3333 24.8974C41.4095 24.8782 41.4476 24.7817 41.4286 24.7046L41.0857 23.7018C41.0667 23.6246 40.9714 23.5861 40.8952 23.6053C40.8191 23.6246 40.781 23.7211 40.8 23.7982L41.1429 24.801C41.1619 24.8782 41.2571 24.936 41.3333 24.8974Z" fill="#F8AB14"/>
<path d="M42.2286 27.4238C42.3048 27.4045 42.3429 27.3081 42.3238 27.2309L41.981 26.2281C41.9619 26.151 41.8667 26.1124 41.7905 26.1317C41.7143 26.151 41.6762 26.2474 41.6952 26.3245L42.0381 27.3274C42.0571 27.4238 42.1333 27.4624 42.2286 27.4238Z" fill="#F8AB14"/>
<path d="M43.1048 29.9694C43.181 29.9501 43.219 29.8537 43.2 29.7766L42.8571 28.7737C42.8381 28.6966 42.7429 28.658 42.6667 28.6773C42.5905 28.6966 42.5524 28.793 42.5714 28.8702L42.9143 29.873C42.9333 29.9501 43.0286 29.9887 43.1048 29.9694Z" fill="#F8AB14"/>
<path d="M43.9809 32.4765C44.0571 32.4572 44.0952 32.3607 44.0762 32.2836L43.7333 31.2808C43.7143 31.2036 43.619 31.1651 43.5429 31.1844C43.4667 31.2036 43.4286 31.3001 43.4476 31.3772L43.7905 32.38C43.8095 32.4572 43.9048 32.4957 43.9809 32.4765Z" fill="#F8AB14"/>
<path d="M47.0476 6.5188L47.7333 6.2681C47.3524 6.40309 47.1238 6.76951 47.2381 7.07807C47.3524 7.38663 47.7333 7.50234 48.1333 7.36734L47.4476 7.61805C47.0667 7.75305 46.6667 7.61805 46.5524 7.32877C46.4381 7.02021 46.6667 6.6538 47.0476 6.5188Z" fill="#72160E"/>
<path d="M50.7429 5.78597C50.6286 5.47741 50.2476 5.3617 49.8476 5.49669L50.5333 5.24598C50.9143 5.11099 51.3143 5.24598 51.4286 5.53526C51.5429 5.84382 51.3143 6.19095 50.9333 6.34523L50.2476 6.59594C50.6286 6.46094 50.8571 6.09453 50.7429 5.78597Z" fill="#BF1818"/>
<path d="M47.2381 7.07806C47.1238 6.7695 47.3524 6.42237 47.7333 6.26809L49.8476 5.49669C50.2286 5.36169 50.6286 5.49669 50.7429 5.78596C50.8571 6.09452 50.6286 6.44165 50.2476 6.59593L48.1333 7.36733C47.7524 7.50233 47.3524 7.36733 47.2381 7.07806Z" fill="#BF1818"/>
<path d="M39.8476 13.8664C39.9048 13.8471 39.981 13.8471 40.0381 13.8471C39.9619 13.9435 39.9238 14.0785 39.981 14.2135L46.4571 32.7465C46.4952 32.8814 46.6095 32.9779 46.7429 32.9972C46.7048 33.055 46.6476 33.0936 46.5714 33.1129C46.381 33.19 46.1714 33.0743 46.0952 32.8814L39.619 14.3485C39.5619 14.1557 39.6571 13.9435 39.8476 13.8664Z" fill="#DD8A06"/>
<path d="M46.4381 32.7464L39.9619 14.2135C39.9238 14.0785 39.9429 13.9435 40.019 13.8471C40.1524 13.8664 40.2667 13.9628 40.3048 14.0978L46.781 32.6307C46.819 32.7657 46.8 32.9007 46.7238 32.9972C46.6095 32.9779 46.4952 32.8814 46.4381 32.7464Z" fill="#F09A07"/>
<path d="M33.4476 56.8335C36.8139 56.8335 39.5429 54.0446 39.5429 50.6044C39.5429 47.1642 36.8139 44.3753 33.4476 44.3753C30.0813 44.3753 27.3524 47.1642 27.3524 50.6044C27.3524 54.0446 30.0813 56.8335 33.4476 56.8335Z" fill="#092230"/>
<path d="M36.1143 52.6486L36.0952 46.7474V46.651L31.6571 47.2103V47.9045L31.6762 52.4365C31.4476 52.2051 31.1048 52.0701 30.7238 52.0701C30.019 52.0701 29.4667 52.5522 29.4667 53.1501C29.4667 53.7479 30.0381 54.2107 30.7238 54.2107C31.4095 54.2107 31.981 53.7672 31.981 53.1308V53.1501L31.9619 48.5409L35.7714 48.001L35.7905 51.9158C35.5619 51.6844 35.219 51.5494 34.8381 51.5494C34.1333 51.5494 33.581 52.0315 33.581 52.6294C33.581 53.2272 34.1524 53.7286 34.8381 53.7286C35.5238 53.7286 36.0952 53.2658 36.0952 52.6872V52.6486H36.1143ZM31.981 48.1938V47.8852L35.7905 47.3838V47.6731L31.981 48.1938Z" fill="#F5F5F5"/>
<path d="M35.8095 12.4586V10.0865V10.048L34.0191 10.2794V10.5687V12.4007C33.9238 12.3043 33.7905 12.2465 33.6381 12.2465C33.3524 12.2465 33.1238 12.4393 33.1238 12.6707C33.1238 12.9022 33.3524 13.095 33.6381 13.095C33.9238 13.095 34.1333 12.9214 34.1524 12.6707V10.8194L35.6762 10.6072V12.1886C35.581 12.0922 35.4476 12.0343 35.2952 12.0343C35.0095 12.0343 34.781 12.2272 34.781 12.4586C34.781 12.69 35.0095 12.9022 35.2952 12.9022C35.581 12.9022 35.8095 12.7093 35.8095 12.4586ZM34.1524 10.6844V10.5494L35.6762 10.3372V10.453L34.1524 10.6844Z" fill="#808181"/>
<path d="M6.13333 31.2229L6.11428 27.1152V27.0381L3.02857 27.4238V27.9059L3.04762 31.0687C2.89524 30.9144 2.64762 30.818 2.38095 30.818C1.88571 30.818 1.50476 31.1458 1.50476 31.5701C1.50476 31.9751 1.90476 32.3029 2.38095 32.3029C2.85714 32.3029 3.25714 31.9943 3.25714 31.5508L3.23809 28.3495L5.88571 27.9831L5.90476 30.7022C5.75238 30.548 5.50476 30.4515 5.23809 30.4515C4.74286 30.4515 4.3619 30.7794 4.3619 31.2037C4.3619 31.6086 4.7619 31.9558 5.23809 31.9558C5.71428 31.9558 6.11428 31.6279 6.11428 31.2229H6.13333ZM3.25714 28.1373V27.9252L5.90476 27.5781V27.7709L3.25714 28.1373Z" fill="#808181"/>
</svg>
