<svg width="61" height="43" viewBox="0 0 61 43" fill="none" xmlns="http://www.w3.org/2000/svg">
<path fill-rule="evenodd" clip-rule="evenodd" d="M2.5092 0.59082H58.5162C59.8116 0.59082 60.8784 1.54842 60.8784 2.71122V37.0252C60.8784 38.188 59.8116 39.1456 58.5162 39.1456H2.5092C1.2138 39.1456 0.147003 38.188 0.147003 37.0252V2.71122C0.147003 1.54842 1.2138 0.59082 2.5092 0.59082Z" fill="#17C5CC"/>
<path fill-rule="evenodd" clip-rule="evenodd" d="M30.5 0.59082H58.4908C59.7862 0.59082 60.853 1.54842 60.853 2.71122V37.048C60.853 38.2108 59.7862 39.1684 58.4908 39.1684H30.5V0.59082Z" fill="#12AEBB"/>
<path d="M55.9254 3.87402H5.0492V35.8396H55.9254V3.87402Z" fill="#F2F2F2"/>
<path fill-rule="evenodd" clip-rule="evenodd" d="M30.5 35.8396H55.9508L55.9254 3.8512L30.5 3.874V35.8396Z" fill="#E6E4E5"/>
<path fill-rule="evenodd" clip-rule="evenodd" d="M20.594 11.4436L40.406 19.8568L20.594 28.2928V11.4436Z" fill="#323E52"/>
<path fill-rule="evenodd" clip-rule="evenodd" d="M27.6044 18.6028C28.6204 18.6028 29.4586 19.3552 29.4586 20.2672C29.4586 21.202 28.6204 21.9316 27.6044 21.9316C26.5884 21.9316 25.7502 21.1792 25.7502 20.2672C25.7502 19.3552 26.5884 18.6028 27.6044 18.6028Z" fill="#12AEBB"/>
<path fill-rule="evenodd" clip-rule="evenodd" d="M27.6044 17.782C28.3664 17.782 29.0522 18.0556 29.5602 18.5116C30.0682 18.9676 30.373 19.5832 30.373 20.2672C30.373 20.9512 30.0682 21.5668 29.5602 22.0228C29.0522 22.4788 28.3664 22.7524 27.6044 22.7524C26.8424 22.7524 26.1566 22.4788 25.6486 22.0228C25.1406 21.5668 24.8358 20.9512 24.8358 20.2672C24.8358 19.5832 25.1406 18.9676 25.6486 18.5116C26.1566 18.0784 26.8424 17.782 27.6044 17.782ZM29.3316 18.7168C28.8998 18.3064 28.2902 18.0784 27.6044 18.0784C26.9186 18.0784 26.309 18.3292 25.8772 18.7168C25.4454 19.1272 25.166 19.6744 25.166 20.29C25.166 20.9056 25.4454 21.4528 25.8772 21.8404C26.309 22.2508 26.9186 22.4788 27.6044 22.4788C28.2902 22.4788 28.8998 22.228 29.3316 21.8404C29.7634 21.43 30.0428 20.8828 30.0428 20.29C30.0428 19.6744 29.7888 19.1272 29.3316 18.7168Z" fill="#12AEBB"/>
<path fill-rule="evenodd" clip-rule="evenodd" d="M29.5602 26.902C29.6618 26.332 30.2714 25.8988 31.008 25.8988H31.135C31.897 25.8988 32.532 26.3548 32.5828 26.9476H32.6844C32.7352 26.3548 33.3702 25.876 34.1576 25.876H34.2846C35.072 25.876 35.7324 26.3776 35.7578 26.9932L35.8848 27.016V26.9932C35.8848 26.5372 36.3674 26.1496 36.9516 26.1496H37.0278C37.612 26.1496 38.0946 26.5372 38.0946 26.9932V31.0288V31.0744L38.1962 35.8396C38.2216 37.048 37.2818 38.2792 36.215 39.1L35.4784 39.6472L34.8434 42.9304H27.3504L28.0108 39.5104C26.9694 39.214 26.309 38.3704 26.0804 37.4128L25.1406 33.172C24.8104 32.6932 24.9374 32.0776 25.4708 31.69L26.5122 30.9604L26.4868 29.0908C26.4868 29.0224 26.4868 28.954 26.4868 28.8628V20.3128C26.4868 19.5832 27.1472 18.9904 27.96 18.9904H28.087C28.8998 18.9904 29.5602 19.5832 29.5602 20.3128V26.902Z" fill="white"/>
<path fill-rule="evenodd" clip-rule="evenodd" d="M36.7992 39.2824L25.8772 39.2368C25.8264 40.5136 25.7756 41.7448 25.7248 42.976H36.7992C36.7992 41.6308 36.7992 40.3996 36.7992 39.2824Z" fill="#FFAA00"/>
</svg>
